# xmcd
#
# Track frame offsets: 
#        150
#        17665
#        50341
#        65997
#        87597
#        118298
#        144814
#        165380
#        179751
#        195434
#        216134
#        238008
#        258635
#
# Disc length: 3640 seconds
#
# Revision: 0
# Processed by: cddbd v1.5.2PL0 Copyright (c) Steve Scherf et al.
# Submitted via: ExactAudioCopy v0.95b4
#
DISCID=c00e360d
DTITLE=Lyle Lovett - It's Not Big, It's Large
DYEAR=2007
DGENRE=Country
TTITLE0=Tickle Toe
TTITLE1=I Will Rise Up - Ain't No More Cane
TTITLE2=All Downhill
TTITLE3=Don't Cry a Tear
TTITLE4=South Texas Girl
TTITLE5=This Traveling Around
TTITLE6=Up In Indiana
TTITLE7=The ALley Song
TTITLE8=No Big Deal
TTITLE9=Make It Happy
TTITLE10=Ain't No More Cane
TTITLE11=Up In Indiana (Acoustic)
TTITLE12=The ALley Song (Acoustic)
EXTD=
EXTT0=
EXTT1=
EXTT2=
EXTT3=
EXTT4=
EXTT5=
EXTT6=
EXTT7=
EXTT8=
EXTT9=
EXTT10=
EXTT11=
EXTT12=
PLAYORDER=
